<svg xmlns="http://www.w3.org/2000/svg" viewBox="0 0 64 40" role="img" aria-label="Stripe">
  <rect width="64" height="40" rx="6" fill="#635BFF"/>
  <path d="M22.4 15.2c0-1.9 1.6-2.7 4.1-2.7 2.3 0 4.7.7 6.6 1.9V9.6c-2-.8-4.1-1.1-6.6-1.1-5.6 0-9.3 2.9-9.3 7.5 0 7.4 10.3 6.2 10.3 9.4 0 2.2-1.9 2.9-4.5 2.9-2.5 0-5.1-.9-7.2-2.4v5.1c2.4 1.1 4.9 1.6 7.4 1.6 5.8 0 9.8-2.9 9.8-7.5 0-8-10.6-6.4-10.6-9.9z" fill="#fff"/>
  <path d="M37.1 10.2h4.5v4.3h-4.5v10.5c0 1.2.5 1.7 1.7 1.7.6 0 1.3-.1 1.8-.3v4.2c-1 .4-2.3.6-3.9.6-4.1 0-6.1-2-6.1-6v-10.7h-2.7v-4.3h2.7V7.5l4.5-2.6v5.3z" fill="#fff"/>
</svg>
